<?xml version="1.0"?>
<svg xmlns="http://www.w3.org/2000/svg" xmlns:xlink="http://www.w3.org/1999/xlink" xmlns:svgjs="http://svgjs.com/svgjs" version="1.1" width="512" height="512" x="0" y="0" viewBox="0 0 512 512" style="enable-background:new 0 0 512 512" xml:space="preserve" class=""><g><g xmlns="http://www.w3.org/2000/svg"><g><path d="m512 35.4v268.58c0 75.74-61.62 137.36-137.36 137.36h-261.15c-8.59 0-17 2.39-24.31 6.92l-66.28 41.09c-2.41 1.49-5.16 2.25-7.9 2.25-2.51 0-5.02-.63-7.3-1.9-4.75-2.64-7.7-7.66-7.7-13.1v-318.83c0-75.74 61.62-137.37 137.37-137.37h359.63c8.28 0 15 6.72 15 15z" fill="#38ef7d" data-original="#4793ff" style="" class=""/></g><path d="m512 35.4v268.58c0 75.74-61.62 137.36-137.36 137.36h-118.64v-420.94h241c8.28 0 15 6.72 15 15z" fill="#1fd564" data-original="#525cdd" style="" class=""/><path d="m410.9 244.54-11.66 95.98c-2.11 17.4-16.88 30.48-34.4 30.48h-98.81c-3.37 0-6.73-.26-10.03-.79-2.42-.37-4.82-.89-7.17-1.54-5.58-1.53-10.95-3.82-15.97-6.81-10.03-5.98-21.49-9.13-33.16-9.13h-28.72v-151.48l20.76-1.09c15.09-.79 28.88-8.79 37.06-21.5l27.2-42.25 31.28-48.58c3.76-5.83 10.82-8.63 17.56-6.94l.79.19c16.31 4.08 27.74 18.73 27.74 35.52v.37c-.1 10.87-1.41 21.65-3.89 32.16s-6.12 20.75-10.89 30.51c-1.01 2.07-1.52 4.32-1.52 6.59 0 1.35.18 2.71.55 4.03 1.81 6.5 7.73 10.99 14.48 10.99h40.46c23.18 0 41.14 20.28 38.34 43.29z" fill="#ffbfab" data-original="#ffbfab" style="" class=""/><g><g><path d="m198.38 196.033v161.005c0 7.577-6.62 13.734-14.83 13.827l-35.25.369-34.92.359h-.17c-3.95 0-7.74-1.429-10.55-3.991-2.85-2.599-4.45-6.139-4.45-9.835v-161.734c0-7.632 6.71-13.827 15-13.827h70.17c8.28.001 15 6.195 15 13.827z" fill="#47568c" data-original="#47568c" style=""/></g></g><path d="m410.9 244.54-11.66 95.98c-2.11 17.4-16.88 30.48-34.4 30.48h-98.81c-3.37 0-6.73-.26-10.03-.79v-233.8l31.28-48.58c3.76-5.83 10.82-8.63 17.56-6.94l.79.19c16.31 4.08 27.74 18.73 27.74 35.52v.37c-.1 10.87-1.41 21.65-3.89 32.16s-6.12 20.75-10.89 30.51c-1.01 2.07-1.52 4.32-1.52 6.59 0 1.35.18 2.71.55 4.03 1.81 6.5 7.73 10.99 14.48 10.99h40.46c23.18 0 41.14 20.28 38.34 43.29z" fill="#f89580" data-original="#f89580" style=""/><path d="m198.38 196.033v161.005c0 7.577-6.62 13.734-14.83 13.827l-35.25.369v-189.027h35.08c8.28 0 15 6.194 15 13.826z" fill="#29376d" data-original="#29376d" style=""/></g></g></svg>
